<svg width="84" height="23" viewBox="0 0 84 23" fill="none" xmlns="http://www.w3.org/2000/svg">
<path fill-rule="evenodd" clip-rule="evenodd" d="M0 22.0723V0.923305H5.431V2.6243C7.038 1.3163 9.036 0.487305 11.382 0.487305C14.293 0.487305 16.943 1.7953 18.68 3.8893C20.071 5.5453 20.852 7.6833 20.852 11.3023V22.0723H15.205V10.8663C15.205 8.7733 14.727 7.6833 13.945 6.8983C13.206 6.1563 12.077 5.7203 10.774 5.7203C8.385 5.7203 6.43 7.2473 5.648 8.3373V22.0723H0Z" fill="white"/>
<path fill-rule="evenodd" clip-rule="evenodd" d="M35.3222 19.0285C31.6672 19.0285 29.1652 16.2765 29.1652 12.8725C29.1652 9.46649 31.6672 6.66749 35.3222 6.66749C38.9792 6.66749 41.4792 9.46649 41.4792 12.8725C41.4792 16.2765 38.9792 19.0285 35.3222 19.0285ZM35.3942 0.488487C28.6462 0.449487 23.0652 5.97049 23.0082 12.7445C22.9792 16.3295 24.4722 19.5665 26.8762 21.8435C27.7512 22.6705 29.1032 22.7515 30.0522 22.0105C31.4542 20.9165 33.2532 20.2645 35.3222 20.2645C37.3912 20.2645 39.1912 20.9175 40.5932 22.0105C41.5502 22.7575 42.9082 22.6615 43.7872 21.8255C46.1572 19.5725 47.6372 16.3835 47.6372 12.8485C47.6372 6.04649 42.1612 0.526487 35.3942 0.488487Z" fill="#9FE985"/>
<path fill-rule="evenodd" clip-rule="evenodd" d="M58.8118 22.0723H54.6058L46.2188 0.92334H51.8577L56.4558 13.0103L60.9648 0.92334H65.6777L70.1458 13.0103L74.7847 0.92334H80.4248L72.0378 22.0723H67.8307L63.3218 10.0303L58.8118 22.0723Z" fill="white"/>
<path fill-rule="evenodd" clip-rule="evenodd" d="M80.0134 19.3274H80.5914C80.8054 19.3274 80.9764 19.1444 80.9764 18.9164C80.9764 18.6854 80.8054 18.5064 80.5914 18.5064H80.0134V19.3274ZM80.4894 19.6884H80.0134V20.5834H79.6094V18.1274H80.5914C81.0294 18.1274 81.3804 18.4784 81.3804 18.9164C81.3804 19.2324 81.1814 19.5134 80.8924 19.6284L81.4504 20.5834H81.0084L80.4894 19.6884Z" fill="#102D40"/>
<path fill-rule="evenodd" clip-rule="evenodd" d="M80.4367 16.7642C78.9827 16.7642 77.8047 17.9432 77.8047 19.3972C77.8047 20.8512 78.9827 22.0292 80.4367 22.0292C81.8917 22.0292 83.0697 20.8512 83.0697 19.3972C83.0697 17.9432 81.8917 16.7642 80.4367 16.7642ZM80.4367 17.1232C81.6897 17.1232 82.7097 18.1432 82.7097 19.3972C82.7097 20.6502 81.6897 21.6702 80.4367 21.6702C79.1827 21.6702 78.1637 20.6502 78.1637 19.3972C78.1637 18.1432 79.1827 17.1232 80.4367 17.1232Z" fill="#102D40"/>
</svg>
